# xmcd
#
# Track frame offsets:
# 150
# 21843
# 40964
# 51529
# 84564
# 96153
# 119045
# 130261
# 136453
# 158640
# 164067
# 173307
# 184522
# 194518
# 199768
# 206669
# 214319
# 223307
# 232789
# 240878
# 247943
# 251963
# 256947
#
# Disc length: 4097 seconds
#
#
# Revision: 0
# Processed by: cddbd v1.5.1PL2 Copyright (c) Steve Scherf et al.
# Submitted via: FreeRIP 2.945 
#
DISCID=520fff17
DTITLE=Blue Devils - The Phenomenon of Cool - Unsquare Dances
DYEAR=2003
DGENRE=Drum Corps
TTITLE0=A Brubeck Fantasy
TTITLE1=Sketches
TTITLE2=A Cool State of Mind
TTITLE3=It's Alright With Me 1993
TTITLE4=Lonesome Dove 1991
TTITLE5=Space Music/Benediction/G-Force 1988
TTITLE6=Wally's Lament 1989
TTITLE7=Tois Gymnopedies 1990
TTITLE8=Festival de Ritmo 1992
TTITLE9=F Tuning
TTITLE10=When A Man Loves A Woman
TTITLE11=Legend of the One-Eyed Sailor
TTITLE12=Vertigo 2000
TTITLE13=Latin Implosion/Fanfare 2000
TTITLE14=Dance Movements - Mvmt. #3 2001
TTITLE15=Planet Krypton 2001
TTITLE16=An American Elegy 2003
TTITLE17=Praying Mantis 2003
TTITLE18=Homage: Tapestry Two 2003
TTITLE19=Finals Warm Up 2002
TTITLE20=The Ditty 2003
TTITLE21=Fleshtuplet 2003
TTITLE22=Jazz - Music Made in America 2002
EXTD=
EXTT0=
EXTT1=
EXTT2=
EXTT3=
EXTT4=
EXTT5=
EXTT6=
EXTT7=
EXTT8=
EXTT9=
EXTT10=
EXTT11=
EXTT12=
EXTT13=
EXTT14=
EXTT15=
EXTT16=
EXTT17=
EXTT18=
EXTT19=
EXTT20=
EXTT21=
EXTT22=
PLAYORDER=
